<?xml version="1.0" encoding="UTF-8"?>
<svg width="128" height="32" version="1.1" viewBox="0 0 128 32" xml:space="preserve" xmlns="http://www.w3.org/2000/svg">
    <path transform="matrix(1.0523 0 0 1.1956 -7.6944 -7.2597)" d="m123.72 6.908c2.36 0 4.276 1.687 4.276 3.764v17.564c0 2.078-1.916 3.764-4.276 3.764h-111.18c-2.361 0-4.277-1.686-4.277-3.764v-17.564c0-2.077 1.916-3.764 4.277-3.764z" clip-rule="evenodd" fill="#5865f2" fill-rule="evenodd" stroke-linejoin="round" stroke-miterlimit="2"/><path transform="matrix(.17315 0 0 .17315 9 7.689)" d="m81.15 0c-1.238 2.197-2.349 4.47-3.359 6.794-9.598-1.44-19.372-1.44-28.995 0-0.985-2.324-2.121-4.597-3.359-6.794-9.016 1.541-17.806 4.243-26.14 8.057-16.518 24.473-20.988 48.316-18.766 71.829 9.673 7.148 20.508 12.603 32.051 16.089 2.601-3.486 4.899-7.198 6.869-11.063-3.738-1.389-7.349-3.131-10.809-5.152 0.909-0.657 1.793-1.338 2.652-1.995 20.281 9.547 43.769 9.547 64.075 0 0.859 0.707 1.743 1.389 2.652 1.995-3.46 2.046-7.071 3.763-10.835 5.178 1.97 3.864 4.269 7.577 6.87 11.062 11.542-3.485 22.377-8.916 32.051-16.063 2.626-27.277-4.496-50.917-18.817-71.855-8.309-3.814-17.098-6.516-26.115-8.031l-0.025-0.051zm-38.87 65.414c-6.238 0-11.416-5.657-11.416-12.653s4.976-12.679 11.391-12.679 11.517 5.708 11.416 12.679-5.026 12.653-11.391 12.653zm42.078 0c-6.264 0-11.391-5.657-11.391-12.653s4.975-12.679 11.391-12.679c6.415 0 11.491 5.708 11.39 12.679s-5.026 12.653-11.39 12.653zm84.482-52.1h37.696c9.085 0 16.772 1.418 23.059 4.253 5.789 2.434 10.704 6.564 14.098 11.848 3.177 5.219 4.806 11.233 4.695 17.343 0.07 6.137-1.622 12.165-4.874 17.37-3.629 5.498-8.817 9.787-14.899 12.317-6.665 3.038-14.927 4.552-24.786 4.543h-34.989v-67.674zm34.603 50.455c6.121 0 10.825-1.528 14.111-4.584 3.372-3.269 4.951-7.723 4.93-12.524 0.018-4.446-1.38-8.592-4.391-11.737-2.946-2.927-7.378-4.396-13.297-4.405h-11.792v33.25h10.439zm101.39 17.108c-4.973-1.246-9.73-3.234-14.112-5.896v-16.045c3.825 2.783 8.133 4.833 12.704 6.048 5 1.526 10.195 2.321 15.423 2.361 1.805 0.097 3.607-0.215 5.275-0.911 1.187-0.608 1.781-1.381 1.781-2.182 0.026-0.904-0.324-1.779-0.966-2.416-1.103-0.848-2.398-1.413-3.77-1.643l-11.599-2.61c-6.646-1.546-11.364-3.687-14.153-6.421-2.831-2.855-4.334-6.767-4.142-10.784-0.047-3.6 1.264-7.085 3.673-9.762 2.855-3.02 6.455-5.235 10.438-6.421 5.126-1.611 10.48-2.38 15.852-2.278 5.015-0.047 10.016 0.537 14.885 1.74 3.933 0.932 7.71 2.429 11.212 4.446v15.189c-3.285-1.906-6.816-3.351-10.494-4.295-3.985-1.068-8.094-1.607-12.22-1.601-6.057 0-9.086 1.031-9.086 3.093-0.02 0.939 0.524 1.798 1.381 2.181 1.655 0.704 3.389 1.205 5.164 1.492l9.666 1.74c6.278 1.104 10.959 3.037 14.043 5.799 3.083 2.762 4.63 6.803 4.639 12.123 0.1 5.694-2.827 11.013-7.691 13.974-5.09 3.415-12.358 5.118-21.803 5.109-5.431 9e-3 -10.841-0.674-16.1-2.03zm68.433-2.03c-5.168-2.374-9.523-6.216-12.524-11.046-2.8-4.737-4.233-10.157-4.143-15.658-0.083-5.499 1.428-10.904 4.35-15.562 3.115-4.755 7.549-8.498 12.758-10.77 6.335-2.761 13.197-4.099 20.105-3.922 9.666 0 17.688 2.03 24.067 6.089v17.716c-2.427-1.631-5.078-2.901-7.87-3.769-3.126-0.987-6.388-1.477-9.666-1.45-5.993 0-10.683 1.095-14.07 3.286-4.761 2.657-6.467 8.671-3.81 13.432 0.866 1.552 2.134 2.841 3.672 3.731 3.286 2.219 8.054 3.328 14.305 3.328 3.226 8e-3 6.436-0.457 9.527-1.381 2.82-0.808 5.529-1.963 8.064-3.438v17.122c-7.471 4.356-16.001 6.564-24.647 6.379-6.93 0.19-13.812-1.208-20.118-4.087zm68.681 0c-5.225-2.386-9.658-6.219-12.772-11.046-2.935-4.726-4.459-10.192-4.391-15.755-0.094-5.497 1.433-10.9 4.391-15.534 3.131-4.704 7.544-8.413 12.717-10.688 12.707-5.155 26.922-5.155 39.629 0 5.152 2.258 9.548 5.948 12.662 10.633 2.938 4.651 4.449 10.061 4.349 15.561 0.069 5.558-1.439 11.02-4.349 15.755-3.081 4.831-7.492 8.667-12.704 11.047-12.621 5.413-26.91 5.413-39.532 0v0.027zm29.37-17.149c2.413-2.492 3.692-5.869 3.535-9.334 0.168-3.435-1.114-6.782-3.535-9.224-2.624-2.407-6.112-3.647-9.666-3.438-3.551-0.187-7.03 1.05-9.665 3.438-2.412 2.447-3.689 5.792-3.522 9.224-0.156 3.462 1.117 6.837 3.522 9.334 2.61 2.436 6.099 3.707 9.665 3.521 3.569 0.208 7.066-1.066 9.666-3.521zm85.306-36.233v20.906c-2.886-1.722-6.212-2.562-9.569-2.417-5.151 0-9.127 1.575-11.889 4.695-2.762 3.121-4.142 7.967-4.142 14.54v17.785h-23.681v-56.544h23.197v17.95c1.289-6.572 3.37-11.419 6.242-14.539 2.818-3.106 6.91-4.738 11.046-4.695 3.064-7e-3 6.146 0.721 8.796 2.32zm78.678-14.084v69.593h-23.681v-12.704c-1.786 4.523-4.994 8.342-9.141 10.881-4.577 2.608-9.784 3.907-15.05 3.756-4.956 0.115-9.834-1.245-14.016-3.908-4.049-2.63-7.274-6.349-9.306-10.729-2.217-4.834-3.322-10.105-3.231-15.423-0.156-5.514 1.018-10.985 3.424-15.949 2.211-4.546 5.663-8.375 9.956-11.046 4.413-2.674 9.491-4.047 14.65-3.963 11.267 0 18.839 4.898 22.714 14.692v-25.2h23.681zm-27.16 49.985c2.44-2.401 3.758-5.719 3.631-9.141 0.104-3.32-1.218-6.526-3.631-8.809-5.585-4.547-13.595-4.547-19.18 0-2.407 2.335-3.707 5.583-3.576 8.934-0.123 3.382 1.191 6.657 3.618 9.016 2.562 2.383 5.977 3.632 9.472 3.466 3.557 0.197 7.043-1.053 9.665-3.466h1e-3zm-339.79-52.125c6.52 0 11.806 4.748 11.806 10.605s-5.286 10.604-11.806 10.604-11.806-4.747-11.806-10.604 5.286-10.605 11.806-10.605zm-11.82 28.514c7.556 3.175 16.071 3.175 23.626 0v43.523h-23.626v-43.523z" clip-rule="evenodd" fill="#fff" stroke-linejoin="round" stroke-miterlimit="2"/>
</svg>